<svg xmlns="http://www.w3.org/2000/svg" version="1.1" xmlns:xlink="http://www.w3.org/1999/xlink" xmlns:svgjs="http://svgjs.dev/svgjs" width="100%" height="100%" viewBox="0 0 1000 600"><rect width="1000" height="600" x="0" y="0" fill="#ffffff"/><g><circle r="166.66666666666666" cx="328.62832132975257" cy="350.85053630617506" fill="#0088ff" transform="matrix(0.7717878382365855,0,0,0.7717878382365855,0,29.217845485019396)"/><path d="M390.88363351443525 376.800901483543L390.88363351443525 376.800901483543Q394.1952308472563 376.800901483543 394.1952308472563 385.7856450668525L394.1952308472563 385.7856450668525Q394.1952308472563 390.67160834478517 390.09645054187945 397.6205338956227Q385.9976702365026 404.54231520602735 379.4559082921594 410.32403841824765Q372.8870021073833 416.078617390035 364.8794511796603 419.7973783293504Q356.8719002519373 423.5161392686658 349.65153229677014 423.5161392686658Q342.40402010117003 423.5161392686658 338.30523979579317 420.77457098493693Q334.20645949041636 418.0330027012081 331.84491057274886 413.3370491063061L331.84491057274886 413.3370491063061Q328.53331323992785 406.68671020023106 326.3889182457241 388.03861702278806Q324.24452325152026 369.3633796049121 322.07298401688354 361.9530019667142L322.07298401688354 361.9530019667142Q316.99701105592015 360.9758093111277 313.19681739530586 357.9356543826363Q309.3694794942586 354.89549945414484 309.3694794942586 350.49813250400547Q309.3694794942586 346.10076555386604 313.3868270783366 344.146380242693Q317.40417466241456 342.1919949315199 322.5615803446768 342.1919949315199Q327.746130267372 342.1919949315199 331.84491057274886 344.7435535322181L331.84491057274886 344.7435535322181Q337.32804714020665 340.23760962034686 340.7482214347595 334.1030112824981Q344.16839572931235 327.9412687042163 344.16839572931235 317.490736137527Q344.16839572931235 307.0130593304047 337.1380374571759 300.7698840308241Q330.1076791850395 294.5267087312435 316.5084147281269 294.5267087312435Q302.93629451164725 294.5267087312435 295.68878231604714 296.67110372544727Q288.46841436088 298.81549871965103 283.28386443818476 301.3670573203492Q278.09931451548954 303.8914716806144 274.1091111718446 306.0358666748182Q270.0917635877666 308.20740590945496 266.5901565719148 308.20740590945496Q263.06140531563017 308.20740590945496 263.06140531563017 305.9544339535193Q263.06140531563017 303.7014619975837 266.7801662549456 298.62548903662037Q270.498927194261 293.5495160756569 277.71929514942815 288.4463988742606L277.71929514942815 288.4463988742606Q295.9059362395108 275.74289435163564 318.76138668406253 275.8514713133675Q341.6168371286142 275.9600482750993 356.4918808858759 284.5376282519145L356.4918808858759 284.5376282519145Q373.8641947629698 294.71671841427417 373.8641947629698 315.04775449856066L373.8641947629698 315.04775449856066Q374.08134868643344 331.85003932656247 365.069460862691 342.97917790407575Q356.0847172793815 354.135460722022 342.81118370766444 359.02142399995466L342.81118370766444 359.02142399995466Q345.742761674424 365.454608982566 347.58857002386526 372.89213086119685Q349.43437837330646 380.3025084993947 351.19875400144883 386.5728280394083Q352.96312962959115 392.8160033389889 355.2161015855268 396.91478364436574Q357.4690735414624 401.04070819017556 360.6720939125516 401.04070819017556Q363.9022585240738 401.04070819017556 368.48963515724387 397.2133702891283Q373.1041560308469 393.413176628514 377.5829557022852 388.9072327166428Q382.08889961415645 384.4284330452045 385.69908359174 380.6010951441572Q389.3092675693236 376.800901483543 390.88363351443525 376.800901483543ZM305.86787247840687 306.4430302813126L305.86787247840687 306.4430302813126Q308.3922868386721 306.4430302813126 308.3922868386721 313.0933691873876Q308.3922868386721 319.71656385302964 307.63224810654924 325.5797197865489L307.63224810654924 325.5797197865489Q305.86787247840687 336.92601228752585 303.12630419467797 346.69793884339117L303.12630419467797 346.69793884339117Q296.09594592254155 373.27215022725824 296.09594592254155 377.7780941391295L296.09594592254155 377.7780941391295L296.09594592254155 406.4967005172004Q296.09594592254155 417.0558100456215 288.08839499481854 420.96458066796765L288.08839499481854 420.96458066796765Q284.3696340555031 422.72895629611 280.9494597609503 424.27617800078866Q277.5292854663974 425.85054394590037 273.2133512375569 425.85054394590037L273.2133512375569 425.85054394590037Q265.0157906268032 425.85054394590037 265.0157906268032 406.9852968449937Q265.0157906268032 388.120049744087 273.810524527082 359.40144336601605Q282.6052584273608 330.6828369879452 292.1871753001954 315.61778354765283L292.1871753001954 315.61778354765283Q294.1415606113685 312.6862055808932 297.8603215506839 309.56461793110293Q301.5519382495663 306.4430302813126 305.86787247840687 306.4430302813126Z " fill="#ffffff" transform="matrix(0.7717878382365855,0,0,0.7717878382365855,0,29.217845485019396)"/><path d="M696.9615085604216 377.90005334382573L696.9615085604216 377.90005334382573Q700.0272655358431 377.90005334382573 700.0272655358431 386.21780382632164L700.0272655358431 386.21780382632164Q700.0272655358431 390.7410518228451 696.2327630498706 397.1741156401229Q692.4382605638982 403.5820503018645 686.382134079664 408.934560431084Q680.3008784398935 414.26194140476713 672.8877775567023 417.7046357132322Q665.474676673511 421.1473300216973 658.7903213008708 421.1473300216973Q652.0808367726943 421.1473300216973 648.2863342867217 418.60928531253694Q644.4918318007494 416.07124060337657 642.3055952690963 411.7238966956068L642.3055952690963 411.7238966956068Q639.2398382936749 405.5672535892276 637.2546350063118 388.3035237358297Q635.2694317189487 371.0146647268955 633.2590992760494 364.15440526550157L633.2590992760494 364.15440526550157Q628.5599471907722 363.2497556661969 625.0418654156983 360.43529024613787Q621.4986544850883 357.6208248260788 621.4986544850883 353.5499016292077Q621.4986544850883 349.47897843233653 625.2177695044521 347.66967923372715Q628.9368845238158 345.86038003511777 633.7114240757018 345.86038003511777Q638.5110927831238 345.86038003511777 642.3055952690963 348.2225206555245L642.3055952690963 348.2225206555245Q647.3816846874172 344.05108083650833 650.5479582849836 338.3718916853178Q653.7142318825499 332.66757337859093 653.7142318825499 322.99284849713797Q653.7142318825499 313.29299446014875 647.2057805986634 307.5132886868132Q640.6973293147769 301.7335829134777 628.1076223911199 301.7335829134777Q615.5430446229991 301.7335829134777 608.8335600948226 303.7187862008407Q602.1492047221824 305.70398948820383 597.3495360147602 308.06613010861054Q592.5498673073381 310.403141573481 588.8558814435106 312.38834486084403Q585.1367664241469 314.3986773037434 581.8951053599717 314.3986773037434Q578.6283151402604 314.3986773037434 578.6283151402604 312.3129573942353Q578.6283151402604 310.22723748472725 582.0710094487254 305.5280853994501Q585.5137037571906 300.82893331417296 592.1980591298308 296.10465207335955L592.1980591298308 296.10465207335955Q609.0345933391126 284.34420728239854 630.1933423006279 284.4447239045435Q651.3520912621433 284.5452405266885 665.1228684960037 292.4860536761408L665.1228684960037 292.4860536761408Q681.2055280391982 301.90948700223134 681.2055280391982 320.7312244988762L681.2055280391982 320.7312244988762Q681.4065612834881 336.28617177580975 673.063681645456 346.58912554566876Q664.74593116296 356.91720847106404 652.4577741057379 361.44045646758747L652.4577741057379 361.44045646758747Q655.1717229036519 367.3960663296767 656.8805054801164 374.2814549466069Q658.5892880565808 381.14171440800084 660.2226831664366 386.94654933687264Q661.8560782762922 392.72625511020817 663.9417981858003 396.52075759618066Q666.0275180953083 400.34038923768935 668.9927584485848 400.34038923768935Q671.9831279573975 400.34038923768935 676.2299552430223 396.7971783070793Q680.5019116841835 393.2790965320055 684.6482223476632 389.1076567129894Q688.8196621666793 384.9613460495096 692.1618398529995 381.4181351188995Q695.5040175393196 377.90005334382573 696.9615085604216 377.90005334382573ZM618.2569934209132 312.7652821938877L618.2569934209132 312.7652821938877Q620.5940048857836 312.7652821938877 620.5940048857836 318.9219253002669Q620.5940048857836 325.05343925110975 619.8903885307689 330.48133684693795L619.8903885307689 330.48133684693795Q618.2569934209132 340.9853238610869 615.7189487117528 350.03181985413386L615.7189487117528 350.03181985413386Q609.2104974278662 374.6332631241143 609.2104974278662 378.8047029431304L609.2104974278662 378.8047029431304L609.2104974278662 405.39134950047395Q609.2104974278662 415.16659100407185 601.7973965446749 418.78518940129067L601.7973965446749 418.78518940129067Q598.35470223621 420.4185845111463 595.1884286386435 421.8509463767121Q592.022155041077 423.3084373978141 588.0266193108147 423.3084373978141L588.0266193108147 423.3084373978141Q580.4376143388697 423.3084373978141 580.4376143388697 405.8436743001262Q580.4376143388697 388.3789112024384 588.579460732612 361.79226464509486Q596.7213071263543 335.20561808775136 605.5918990306475 321.2589367651373L605.5918990306475 321.2589367651373Q607.4011982292568 318.5449879672232 610.843892537722 315.65513508055545Q614.2614576906508 312.7652821938877 618.2569934209132 312.7652821938877ZM733.1474925326095 400.8681015039504L733.1474925326095 400.8681015039504Q747.2449487884409 400.8681015039504 760.4628846005039 389.66049813478674L760.4628846005039 389.66049813478674Q765.3379407745348 385.48905831577065 768.4288269054925 381.9709765406968Q771.494583880914 378.42776561008674 773.1279789907696 378.42776561008674L773.1279789907696 378.42776561008674Q775.6660236999301 378.42776561008674 775.6660236999301 383.50385502840754Q775.6660236999301 388.57994444672835 772.952074902016 394.8119750197162Q770.2381261041019 401.04400559270414 763.905578908969 407.0247446103296L763.905578908969 407.0247446103296Q748.3506316320355 421.67504228795843 721.2111436528946 421.67504228795843L721.2111436528946 421.67504228795843Q699.6754573583357 421.67504228795843 691.8854191421008 406.12009501102494L691.8854191421008 406.12009501102494Q689.1714703441868 400.69219741519674 689.1714703441868 390.5651477340914Q689.1714703441868 380.43809805298605 693.1670060744492 369.48178623918477Q697.1374126491753 358.5254744253835 703.7463805552068 350.5846612759312Q710.3553484612383 342.6187189709426 719.0249071212417 338.17085844102786Q727.7195949367813 333.7481270666493 737.5702239069878 333.7481270666493Q747.4459820327309 333.7481270666493 752.773363006414 338.6231832406802Q758.1007439800973 343.52336857024727 758.1007439800973 351.2882776309459Q758.1007439800973 359.07831584718076 754.230854027516 364.05388864335663Q750.3358349193986 369.02946143953244 744.1791918130194 372.37163912585254Q738.0225487066402 375.7138168121727 730.508931201304 378.352378143478Q723.0204428515041 380.96581031924717 715.7832460570665 384.23260053895854L715.7832460570665 384.23260053895854L715.7832460570665 388.755848535482Q715.9591501458202 395.26429981936855 721.2111436528946 397.97824861728265Q726.438008004433 400.69219741519674 733.1474925326095 400.8681015039504ZM730.0566064016517 349.8559157653802L730.0566064016517 349.8559157653802Q720.6583022310974 349.8559157653802 717.0397038338785 371.74341023744654L717.0397038338785 371.74341023744654Q720.8342063198511 369.2053655282861 724.1763840061712 367.22016224092306Q727.5436908480275 365.23495895355995 730.0566064016517 363.4256597549506L730.0566064016517 363.4256597549506Q735.4845039974798 359.43012402468815 735.6855372417698 354.3791637619036L735.6855372417698 354.3791637619036Q735.6855372417698 349.8559157653802 730.0566064016517 349.8559157653802ZM807.8564719418555 332.9439940894896Q819.9938540658601 332.84347746734466 825.9494639279493 337.4672420860131Q831.9302029455748 342.0658775491453 831.9302029455748 350.6600487425399Q831.9302029455748 359.2542199359345 826.7787260606453 365.3103464201687Q821.6272491757157 371.39160205993915 814.1890191369882 373.9045176135633L814.1890191369882 373.9045176135633Q819.4410126440628 379.33241520939146 823.6878399296876 384.9613460495096Q827.9597963708486 390.5651477340914 827.9597963708486 396.7217908404706L827.9597963708486 396.7217908404706Q827.9597963708486 408.834043808939 818.3604589560043 415.4430117149705Q808.7611215411602 422.05197962100203 791.6732957765159 422.05197962100203Q774.5854700118716 422.05197962100203 766.0666862850858 415.26710762621684Q757.5730317138361 408.4822356314316 757.5730317138361 399.888064438037Q757.5730317138361 391.29389324464245 761.819858999461 384.23260053895854Q766.0666862850858 377.1713078332747 770.9668716146529 377.1713078332747L770.9668716146529 377.1713078332747Q773.8567245013206 377.1713078332747 775.1131822781327 379.2570277427827Q776.3947692104811 381.34274765229077 779.8123343634098 391.29389324464245L779.8123343634098 391.29389324464245Q781.0939212957583 394.9124916418612 783.983774182426 398.15415270603637L783.983774182426 398.15415270603637Q790.6681295550662 405.5672535892276 805.1425231439414 405.5672535892276L805.1425231439414 405.5672535892276Q802.9814157678245 398.70699412783364 798.1817470604025 393.7314213316578Q793.3820783529803 388.755848535482 788.6829262677031 384.05669645020487Q783.983774182426 379.33241520939146 780.3651757852072 374.00503423570825Q776.7465773879884 368.6776532620251 776.7465773879884 361.44045646758747L776.7465773879884 361.44045646758747Q776.7465773879884 348.39842474427815 786.5218188915863 340.2565783505359L786.5218188915863 340.2565783505359Q795.744218973387 333.0193815560983 807.8564719418555 332.9439940894896ZM807.1528555868407 366.491416730372L807.1528555868407 366.491416730372Q814.3900523812782 358.72650766967337 814.3900523812782 354.00222642886L814.3900523812782 354.00222642886Q814.3900523812782 351.84111905274324 812.8320447380313 350.1323364762788Q811.2991662503205 348.39842474427815 808.4093133636527 348.39842474427815Q805.5194604769849 348.39842474427815 802.8808991456796 349.12717025482914Q800.2674669699105 349.8559157653802 798.6340718600547 350.2077239428875L798.6340718600547 350.2077239428875Q798.6340718600547 357.0931125598177 807.1528555868407 366.491416730372ZM860.878990123325 421.1473300216973L860.878990123325 421.1473300216973Q842.7859981372312 421.1473300216973 842.7859981372312 387.29835751438003L842.7859981372312 387.29835751438003Q842.7859981372312 368.8535573507787 847.3092461337546 353.8263223401063L847.3092461337546 353.8263223401063Q854.3705388394385 330.6823700912279 863.2411307437317 330.6823700912279L863.2411307437317 330.6823700912279Q868.46799509527 330.6823700912279 871.5588812262276 337.71853364137553L871.5588812262276 337.71853364137553Q874.0969259353881 343.14643123720367 873.8958926910982 348.39842474427815L873.8958926910982 348.39842474427815Q873.8958926910982 355.6356215387157 869.5736779388646 373.9045176135633L869.5736779388646 373.9045176135633Q865.4022381198486 389.8364022235404 865.4022381198486 393.6309047095129Q865.4022381198486 397.4254071954853 867.3120539406028 398.88289821658736Q869.196740605821 400.34038923768935 871.8353019371264 400.34038923768935Q874.4487341128954 400.34038923768935 878.4191406876216 396.89769492922426Q882.414676417884 393.4550006207592 886.3850829926103 389.3840774238881Q890.3806187228726 385.3131542270169 893.7227964091927 381.87045991855183Q897.0649740955128 378.42776561008674 898.3214318723249 378.42776561008674L898.3214318723249 378.42776561008674Q900.8594765814853 378.42776561008674 900.8594765814853 384.58440871646593L900.8594765814853 384.58440871646593Q900.8594765814853 397.24950310673165 888.1189947246108 409.2863686085913Q875.3533837122002 421.32323411045104 860.878990123325 421.1473300216973ZM868.2920910065163 316.00694325806285L868.2920910065163 316.00694325806285Q863.4170348324855 308.76974646362527 863.4170348324855 300.45199598112936Q863.4170348324855 292.1342454986334 866.0304670082545 286.60583128066025Q868.6690283395599 281.1025462182234 871.0060398044303 278.463984886918Q873.3681804248371 275.8505527111489 876.4339374002585 275.8505527111489L876.4339374002585 275.8505527111489Q881.5100268185793 275.8505527111489 885.6563374820591 283.3641702164851Q889.8277773010752 290.87778772182133 889.8277773010752 295.9287479846059L889.8277773010752 295.9287479846059Q889.8277773010752 305.35218131069644 883.2188093950438 310.67956228437964Q876.6098414890123 316.00694325806285 868.2920910065163 316.00694325806285ZM906.2873741773135 413.70909998296986Q909.9059725745321 404.48669990116923 917.1431693689698 398.43057341693503Q924.3803661634073 392.3744469327008 932.8991498901933 392.3744469327008Q941.3928044614429 392.3744469327008 941.3928044614429 401.77275110325513Q941.3928044614429 411.1961844293457 935.3366779772086 418.60928531253694Q929.2805514929744 426.0223861957282 923.1239083865953 425.8464821069745L923.1239083865953 425.8464821069745Q912.2681131949389 425.8464821069745 906.2873741773135 413.70909998296986L906.2873741773135 413.70909998296986ZM1077.818989867698 377.90005334382573L1077.818989867698 377.90005334382573Q1081.0606509318732 377.90005334382573 1081.0606509318732 386.21780382632164L1081.0606509318732 386.21780382632164Q1081.0606509318732 390.7410518228451 1077.2661484459006 397.1741156401229Q1073.4716459599283 403.5820503018645 1067.415519475694 408.934560431084Q1061.3593929914598 414.26194140476713 1053.9211629527324 417.7046357132322Q1046.508062069541 421.1473300216973 1039.4467693638571 421.1473300216973L1039.4467693638571 421.1473300216973Q1029.8725611045493 421.1473300216973 1026.6057708848377 404.3107958124155L1026.6057708848377 404.3107958124155Q1021.9066187995606 412.10083402865035 1014.3176138276157 417.0764068248262Q1006.7034797001345 422.05197962100203 993.96299784326 422.05197962100203Q981.1973868308494 422.05197962100203 973.4073486146145 414.08603731601346Q965.6424395539159 406.12009501102494 965.8183436426696 394.7114583975713L965.8183436426696 394.7114583975713Q965.8183436426696 363.95337202121164 986.2734762491701 346.23731736816137L986.2734762491701 346.23731736816137Q994.9430349091735 338.8242164849701 1002.4566524145097 336.4620758645634Q1009.9702699198458 334.0999352441567 1018.2880204023418 334.0999352441567Q1026.6057708848377 334.0999352441567 1031.8577643919123 337.01491728636074L1031.8577643919123 337.01491728636074Q1034.3958091010727 331.76292377928627 1037.6374701652478 331.76292377928627L1037.6374701652478 331.76292377928627Q1043.9700173603808 331.76292377928627 1049.6743356671077 337.2662088417232Q1055.3786539738344 342.7946230596963 1055.3786539738344 347.66967923372715L1055.3786539738344 347.66967923372715Q1052.840609264674 353.6504182513526 1047.965553090643 361.9681687338486L1047.965553090643 361.9681687338486Q1046.508062069541 370.28591921634455 1046.508062069541 385.3131542270169Q1046.508062069541 400.34038923768935 1050.3025645555135 400.34038923768935L1050.3025645555135 400.34038923768935Q1055.026845796327 400.34038923768935 1073.1198377824207 381.5186517410445L1073.1198377824207 381.5186517410445Q1076.361498846596 377.90005334382573 1077.818989867698 377.90005334382573ZM992.4049902000131 388.755848535482L992.4049902000131 388.755848535482Q992.4049902000131 402.67740070255985 1002.7330731254083 402.67740070255985L1002.7330731254083 402.67740070255985Q1013.7647724058183 402.5014966138061 1021.0019692002559 390.9169559115988L1021.0019692002559 390.9169559115988Q1023.5400139094163 386.94654933687264 1025.173409019272 381.14171440800084L1025.173409019272 381.14171440800084Q1025.173409019272 360.88761504579014 1028.7920074164908 346.4132214569151L1028.7920074164908 346.4132214569151Q1014.1165805833257 349.30307434358286 1003.2607853916695 360.5358068682828Q992.4049902000131 371.74341023744654 992.4049902000131 388.755848535482ZM1093.725745322139 421.1473300216973L1093.725745322139 421.1473300216973Q1075.632753336045 421.1473300216973 1075.632753336045 387.29835751438003L1075.632753336045 387.29835751438003Q1075.632753336045 368.8535573507787 1080.1560013325684 353.8263223401063L1080.1560013325684 353.8263223401063Q1087.2172940382525 330.6823700912279 1096.0878859425457 330.6823700912279L1096.0878859425457 330.6823700912279Q1101.3398794496202 330.6823700912279 1104.4056364250414 337.71853364137553L1104.4056364250414 337.71853364137553Q1106.943681134202 343.14643123720367 1106.7677770454484 348.39842474427815L1106.7677770454484 348.39842474427815Q1106.7677770454484 355.6356215387157 1102.4204331376784 373.9045176135633L1102.4204331376784 373.9045176135633Q1098.2489933186623 389.8364022235404 1098.2489933186623 393.6309047095129Q1098.2489933186623 397.4254071954853 1100.158809139417 398.88289821658736Q1102.068624960171 400.34038923768935 1104.6820571359403 400.34038923768935Q1107.2954893117094 400.34038923768935 1111.2910250419718 396.89769492922426Q1115.2614316166978 393.4550006207592 1119.2569673469602 389.3840774238881Q1123.2273739216864 385.3131542270169 1126.5695516080066 381.87045991855183Q1129.9117292943265 378.42776561008674 1131.193316226675 378.42776561008674L1131.193316226675 378.42776561008674Q1133.7313609358353 378.42776561008674 1133.7313609358353 384.58440871646593L1133.7313609358353 384.58440871646593Q1133.7313609358353 397.24950310673165 1120.9657499234245 409.2863686085913Q1108.2001389110142 421.32323411045104 1093.725745322139 421.1473300216973ZM1101.1639753608663 316.00694325806285L1101.1639753608663 316.00694325806285Q1096.2637900312993 308.76974646362527 1096.2637900312993 300.45199598112936Q1096.2637900312993 292.1342454986334 1098.9023513626048 286.60583128066025Q1101.5157835383739 281.1025462182234 1103.8779241587804 278.463984886918Q1106.214935623651 275.8505527111489 1109.3058217546086 275.8505527111489L1109.3058217546086 275.8505527111489Q1114.356782017393 275.8505527111489 1118.528221836409 283.3641702164851Q1122.6745324998892 290.87778772182133 1122.6745324998892 295.9287479846059L1122.6745324998892 295.9287479846059Q1122.6745324998892 305.35218131069644 1116.0906937493937 310.67956228437964Q1109.4817258433623 316.00694325806285 1101.1639753608663 316.00694325806285Z " fill="#0088ff" transform="matrix(0.7717878382365855,0,0,0.7717878382365855,0,29.217845485019396)"/></g></svg>